<?xml version="1.0" encoding="utf-8"?>
<!-- Generator: Adobe Illustrator 17.1.0, SVG Export Plug-In . SVG Version: 6.00 Build 0)  -->
<!DOCTYPE svg PUBLIC "-//W3C//DTD SVG 1.1//EN" "http://www.w3.org/Graphics/SVG/1.1/DTD/svg11.dtd">
<svg version="1.1" id="Layer_1" xmlns="http://www.w3.org/2000/svg" xmlns:xlink="http://www.w3.org/1999/xlink" x="0px" y="0px"
	 viewBox="202 290.1 232 142.9" enable-background="new 202 290.1 232 142.9" xml:space="preserve">
<rect x="278.7" y="290.1" fill="#559534" width="19.8" height="19.8"/>
<rect x="298.4" y="290.1" fill="#00AD8E" width="19.6" height="19.8"/>
<rect x="318.1" y="290.1" fill="#00483A" width="19.8" height="19.8"/>
<rect x="337.8" y="290.1" fill="#0093B1" width="19.8" height="19.8"/>
<rect x="278.7" y="309.8" fill="#00483A" width="19.8" height="19.8"/>
<rect x="337.8" y="309.8" fill="#559534" width="19.8" height="19.8"/>
<rect x="278.7" y="329.5" fill="#0093B1" width="19.8" height="19.8"/>
<rect x="337.8" y="329.5" fill="#00AD8E" width="19.8" height="19.8"/>
<rect x="278.7" y="349.1" fill="#559534" width="19.8" height="19.8"/>
<rect x="298.4" y="349.1" fill="#00AD8E" width="19.8" height="19.8"/>
<rect x="318.1" y="349.1" fill="#0093B1" width="19.8" height="19.8"/>
<rect x="337.8" y="349.1" fill="#00483A" width="19.8" height="19.8"/>
<g display="none">
	<g display="inline">
		<path fill="#00483A" d="M208.5,407.8H194v-19h4.7v15.5h9.7L208.5,407.8L208.5,407.8z"/>
		<path fill="#00483A" d="M230.5,407.8h-14v-19h13.8v3.5h-9v3.9h8.7v3.5h-8.7v4.6h9.3V407.8z"/>
		<path fill="#00483A" d="M251.6,398l8.3,9.8h-6.1l-5.2-6.3l-5.1,6.3h-6l8-9.8l-7.6-9.1h6.1l4.6,5.6l4.5-5.6h6L251.6,398z"/>
		<path fill="#00483A" d="M272.3,407.8h-4.7v-19h4.7V407.8z"/>
		<path fill="#00483A" d="M301.2,407.8h-3.9l-10.5-12.1v12.1H282v-19h4.3l10.1,11.6v-11.6h4.7L301.2,407.8L301.2,407.8z"/>
		<path fill="#00483A" d="M329,394.3c-2.4-1.2-4.8-1.8-7.1-1.8c-5.2,0-7,3.2-7,6c0,3.4,2.6,5.6,6.6,5.6c1.2,0,1.8-0.1,3.2-0.7v-2.2
			h-2.8v-3.5h7.5v7.7c-1.4,1.5-4.9,2.6-8,2.6c-6.6,0-11.4-4-11.4-9.7c0-5.8,4.6-9.7,11.4-9.7c2.9,0,5.6,0.6,7.5,1.5V394.3z"/>
		<path fill="#00483A" d="M355.9,392.3H349v15.5h-4.7v-15.5h-6.9v-3.5h18.5V392.3z"/>
		<path fill="#00483A" d="M372.4,408.1c-7,0-10.9-4.9-10.9-9.7c0-4.6,3.7-9.7,10.9-9.7s10.8,5.2,10.8,9.7
			C383.3,403.2,379.2,408.1,372.4,408.1z M372.4,392.5c-3.6,0-6,2.3-6,5.8s2.4,5.8,6,5.8c3.6,0,6-2.3,6-5.8
			C378.4,394.8,376,392.5,372.4,392.5z"/>
		<path fill="#00483A" d="M411.2,407.8h-4l-10.5-12.1v12.1H392v-19h4.3l10.1,11.6v-11.6h4.7L411.2,407.8L411.2,407.8z"/>
	</g>
	<g display="inline">
		<path fill="#00483A" d="M197.8,425.3h-0.2l-3.8-9.6h0.8l3.2,7.9l3.2-7.9h0.2l3.2,7.9l3.2-7.9h0.8l-3.8,9.6h-0.2l-3.2-8
			L197.8,425.3z"/>
		<path fill="#00483A" d="M218.6,416.3h-4.4v3.8h4.3v0.6h-4.3v3.9h4.6v0.6h-5.3v-9.5h5.2L218.6,416.3L218.6,416.3z"/>
		<path fill="#00483A" d="M232.6,425.1h-0.8l-1.5-3.2h-4.6l-1.5,3.2h-0.8l4.4-9.6h0.4L232.6,425.1z M228,416.8l-2,4.5h4.1L228,416.8
			z"/>
		<path fill="#00483A" d="M238.7,424.6h4.7v0.6H238v-9.5h0.8L238.7,424.6L238.7,424.6z"/>
		<path fill="#00483A" d="M254.4,416.3h-3.6v8.9h-0.8v-8.9h-3.6v-0.6h7.9V416.3z"/>
		<path fill="#00483A" d="M267.5,425.1h-0.8v-4.5h-6.3v4.5h-0.8v-9.5h0.8v4.4h6.3v-4.4h0.8V425.1z"/>
		<path fill="#00483A" d="M289.9,415.7h0.8v9.5h-0.8v-8.4l0,0l-3.6,4.4l-3.6-4.4l0,0v8.4H282v-9.5h0.8l3.6,4.4L289.9,415.7z"/>
		<path fill="#00483A" d="M305.1,425.1h-0.8l-1.5-3.2h-4.6l-1.5,3.2H296l4.4-9.6h0.4L305.1,425.1z M300.6,416.8l-2,4.5h4.1
			L300.6,416.8z"/>
		<path fill="#00483A" d="M319.1,425.1h-0.6l-7.2-8.3v8.3h-0.8v-9.5h0.6l7.2,8.3v-8.3h0.8V425.1z"/>
		<path fill="#00483A" d="M333.6,425.1h-0.8l-1.5-3.2h-4.6l-1.5,3.2h-0.8l4.4-9.6h0.4L333.6,425.1z M329,416.8l-2,4.5h4.1L329,416.8
			z"/>
		<path fill="#00483A" d="M346.2,417.2c-1.2-0.6-2.2-0.9-3.4-0.9c-2.4,0-4.2,1.8-4.2,4.2c0,2.2,1.4,4.2,4.4,4.2
			c1.1,0,1.9-0.2,2.6-0.6v-2.5h-2v-0.6h2.7v3.6c-1.2,0.5-2.2,0.8-3.4,0.8c-2.9,0-5.2-2.1-5.2-4.9c0-2.8,2.2-4.9,5.1-4.9
			c1.1,0,1.9,0.2,3.2,0.8L346.2,417.2L346.2,417.2z"/>
		<path fill="#00483A" d="M357.6,416.3h-4.4v3.8h4.3v0.6h-4.3v3.9h4.6v0.6h-5.3v-9.5h5.2L357.6,416.3L357.6,416.3z"/>
		<path fill="#00483A" d="M371.4,415.7h0.8v9.5h-0.8v-8.4l0,0l-3.6,4.4l-3.6-4.4l0,0v8.4h-0.8v-9.5h0.8l3.6,4.4L371.4,415.7z"/>
		<path fill="#00483A" d="M383.7,416.3h-4.4v3.8h4.3v0.6h-4.3v3.9h4.6v0.6h-5.3v-9.5h5.2L383.7,416.3L383.7,416.3z"/>
		<path fill="#00483A" d="M398.1,425.1h-0.6l-7.2-8.3v8.3h-0.8v-9.5h0.6l7.2,8.3v-8.3h0.8V425.1z"/>
		<path fill="#00483A" d="M411.2,416.3h-3.6v8.9h-0.8v-8.9h-3.6v-0.6h7.9L411.2,416.3L411.2,416.3z"/>
	</g>
</g>
<g>
	<path fill="#FFFFFF" d="M223.7,407.7h-14.5v-19h4.7v15.5h9.7V407.7z"/>
	<path fill="#FFFFFF" d="M245.7,407.7h-14v-19h13.8v3.5h-9v3.9h8.7v3.5h-8.7v4.6h9.3L245.7,407.7L245.7,407.7z"/>
	<path fill="#FFFFFF" d="M266.8,397.9l8.3,9.8H269l-5.2-6.3l-5.1,6.3h-6l8-9.8l-7.6-9.1h6.1l4.6,5.6l4.5-5.6h6L266.8,397.9z"/>
	<path fill="#FFFFFF" d="M287.6,407.7h-4.8v-19h4.7L287.6,407.7L287.6,407.7z"/>
	<path fill="#FFFFFF" d="M316.5,407.7h-3.9l-10.5-12.1v12.1h-4.7v-19h4.3l10.1,11.6v-11.6h4.7V407.7z"/>
	<path fill="#FFFFFF" d="M344.2,394.2c-2.4-1.2-4.8-1.8-7.1-1.8c-5.2,0-7,3.2-7,6c0,3.4,2.6,5.6,6.6,5.6c1.2,0,1.8-0.1,3.2-0.7V401
		h-2.8v-3.5h7.5v7.7c-1.4,1.5-4.9,2.5-8,2.5c-6.6,0-11.4-4-11.4-9.7c0-5.8,4.6-9.7,11.4-9.7c2.9,0,5.6,0.6,7.5,1.5V394.2z"/>
	<path fill="#FFFFFF" d="M371.2,392.3h-6.9v15.5h-4.7v-15.5h-6.9v-3.5h18.5V392.3z"/>
	<path fill="#FFFFFF" d="M387.7,408c-7,0-10.9-4.9-10.9-9.7c0-4.6,3.7-9.7,10.9-9.7s10.8,5.2,10.8,9.7
		C398.5,403.1,394.5,408,387.7,408z M387.7,392.5c-3.6,0-6,2.3-6,5.8s2.4,5.8,6,5.8c3.6,0,6-2.3,6-5.8
		C393.6,394.8,391.2,392.5,387.7,392.5z"/>
	<path fill="#FFFFFF" d="M426.5,407.7h-3.9L412,395.6v12.1h-4.7v-19h4.3l10.1,11.6v-11.6h4.7V407.7z"/>
</g>
<g>
	<path fill="#FFFFFF" d="M213.1,425.2h-0.2l-3.8-9.6h0.8l3.2,7.9l3.2-7.9h0.2l3.2,7.9l3.2-7.9h0.8l-3.8,9.6h-0.3l-3.2-8L213.1,425.2
		z"/>
	<path fill="#FFFFFF" d="M233.9,416.2h-4.4v3.8h4.3v0.6h-4.3v3.9h4.6v0.6h-5.3v-9.5h5.2V416.2z"/>
	<path fill="#FFFFFF" d="M247.9,425.1h-0.8l-1.5-3.2H241l-1.5,3.2h-0.8l4.4-9.6h0.4L247.9,425.1z M243.3,416.8l-2,4.5h4.1
		L243.3,416.8z"/>
	<path fill="#FFFFFF" d="M254,424.5h4.7v0.6h-5.4v-9.5h0.8L254,424.5L254,424.5z"/>
	<path fill="#FFFFFF" d="M269.7,416.2h-3.6v8.9h-0.8v-8.9h-3.6v-0.6h7.9V416.2z"/>
	<path fill="#FFFFFF" d="M282.8,425.1H282v-4.5h-6.3v4.5h-0.8v-9.5h0.8v4.4h6.3v-4.4h0.8V425.1z"/>
	<path fill="#FFFFFF" d="M305.2,415.6h0.8v9.5h-0.8v-8.4l0,0l-3.6,4.4l-3.6-4.4l0,0v8.4h-0.8v-9.5h0.8l3.6,4.4L305.2,415.6z"/>
	<path fill="#FFFFFF" d="M320.5,425.1h-0.8l-1.5-3.2h-4.6l-1.5,3.2h-0.8l4.4-9.6h0.4L320.5,425.1z M315.9,416.8l-2,4.5h4.1
		L315.9,416.8z"/>
	<path fill="#FFFFFF" d="M334.4,425.1h-0.6l-7.2-8.3v8.3h-0.8v-9.5h0.6l7.2,8.3v-8.3h0.8V425.1z"/>
	<path fill="#FFFFFF" d="M348.9,425.1h-0.8l-1.5-3.2H342l-1.5,3.2h-0.8l4.4-9.6h0.4L348.9,425.1z M344.2,416.8l-2,4.5h4.1
		L344.2,416.8z"/>
	<path fill="#FFFFFF" d="M361.5,417.2c-1.2-0.6-2.2-0.9-3.4-0.9c-2.4,0-4.2,1.8-4.2,4.2c0,2.2,1.4,4.2,4.4,4.2
		c1.1,0,1.9-0.2,2.6-0.6v-2.5h-2v-0.6h2.7v3.6c-1.2,0.5-2.2,0.8-3.4,0.8c-2.9,0-5.2-2.1-5.2-4.9s2.2-4.9,5.1-4.9
		c1.1,0,1.9,0.2,3.2,0.8L361.5,417.2L361.5,417.2z"/>
	<path fill="#FFFFFF" d="M372.9,416.2h-4.4v3.8h4.3v0.6h-4.3v3.9h4.6v0.6h-5.3v-9.5h5.2L372.9,416.2L372.9,416.2z"/>
	<path fill="#FFFFFF" d="M386.7,415.6h0.8v9.5h-0.8v-8.4l0,0l-3.6,4.4l-3.6-4.4l0,0v8.4h-0.8v-9.5h0.8l3.6,4.4L386.7,415.6z"/>
	<path fill="#FFFFFF" d="M399,416.2h-4.4v3.8h4.3v0.6h-4.3v3.9h4.6v0.6h-5.3v-9.5h5.2L399,416.2L399,416.2z"/>
	<path fill="#FFFFFF" d="M413.3,425.1h-0.6l-7.2-8.3v8.3h-0.8v-9.5h0.6l7.2,8.3v-8.3h0.8V425.1z"/>
	<path fill="#FFFFFF" d="M426.5,416.2H423v8.9h-0.8v-8.9h-3.6v-0.6h7.9V416.2z"/>
</g>
</svg>
