<?xml version="1.0" encoding="utf-8"?>
<!-- Generator: Adobe Illustrator 17.1.0, SVG Export Plug-In . SVG Version: 6.00 Build 0)  -->
<!DOCTYPE svg PUBLIC "-//W3C//DTD SVG 1.1//EN" "http://www.w3.org/Graphics/SVG/1.1/DTD/svg11.dtd">
<svg version="1.1" id="Layer_1" xmlns="http://www.w3.org/2000/svg" xmlns:xlink="http://www.w3.org/1999/xlink" x="0px" y="0px"
	 viewBox="196.1 207.6 220.8 220.6" enable-background="new 196.1 207.6 220.8 220.6" xml:space="preserve">
<rect x="196.1" y="207.6" fill="#559534" width="55.4" height="55.4"/>
<rect x="251.3" y="207.6" fill="#00AD8E" width="54.9" height="55.4"/>
<rect x="306.4" y="207.6" fill="#00483A" width="55.4" height="55.4"/>
<rect x="361.6" y="207.6" fill="#0093B1" width="55.4" height="55.4"/>
<rect x="196.1" y="263" fill="#00483A" width="55.4" height="55.4"/>
<rect x="361.6" y="263" fill="#559534" width="55.4" height="55.4"/>
<rect x="196.1" y="317.9" fill="#0093B1" width="55.4" height="55.4"/>
<rect x="361.6" y="317.9" fill="#00AD8E" width="55.4" height="55.4"/>
<rect x="196.1" y="372.9" fill="#559534" width="55.4" height="55.4"/>
<rect x="251.1" y="372.9" fill="#00AD8E" width="55.4" height="55.4"/>
<rect x="306.4" y="372.9" fill="#0093B1" width="55.4" height="55.4"/>
<rect x="361.6" y="372.9" fill="#00483A" width="55.4" height="55.4"/>
<g display="none">
	<g display="inline">
		<path fill="#00483A" d="M61.2,537.2H22.1V484h38.5v9.7H35.2v11h24.2v9.7H35.2v12.8h26V537.2z"/>
		<path fill="#00483A" d="M120.2,509.7l23.1,27.5h-17.1l-14.5-17.5l-14.3,17.5H80.7l22.5-27.5L82,484.2H99l12.8,15.6l12.5-15.6h16.9
			L120.2,509.7z"/>
		<path fill="#00483A" d="M178.2,537.2H165V484h13.2V537.2z"/>
		<path fill="#00483A" d="M259.1,537.2h-11l-29.4-34v34h-13.2V484h12.1l28.3,32.4V484h13.2L259.1,537.2L259.1,537.2z"/>
		<path fill="#00483A" d="M336.7,499.4c-6.7-3.2-13.4-5-19.9-5c-14.5,0-19.5,8.9-19.5,16.7c0,9.5,7.4,15.6,18.4,15.6
			c3.2,0,5-0.2,8.9-1.9v-6.3h-7.8v-9.7h21v21.6c-3.9,4.1-13.8,7.1-22.3,7.1c-18.6,0-31.8-11.2-31.8-27.2c0-16.2,13-27.2,32-27.2
			c8,0,15.6,1.7,21,4.3V499.4z"/>
		<path fill="#00483A" d="M412.2,493.7h-19.2v43.5h-13.2v-43.5h-19.2V484h51.7V493.7z"/>
		<path fill="#00483A" d="M458.2,537.9c-19.5,0-30.5-13.6-30.5-27.2c0-12.8,10.4-27.2,30.5-27.2c20.1,0,30.3,14.5,30.3,27.2
			C488.7,524.2,477.3,537.9,458.2,537.9z M458.2,494.4c-10.2,0-16.9,6.5-16.9,16.2c0,9.7,6.7,16.2,16.9,16.2
			c9.9,0,16.7-6.5,16.7-16.2C475.1,500.9,468.4,494.4,458.2,494.4z"/>
		<path fill="#00483A" d="M567,537.2h-11.2l-29.4-34v34h-13.2V484h12.1l28.3,32.4V484h13.2v53.2H567z"/>
	</g>
	<g display="inline">
		<path fill="#00483A" d="M27.9,561H15.6v10.6h12.1v1.7H15.6v10.8h12.8v1.7H13.6v-26.6h14.5v1.7H27.9z"/>
		<path fill="#00483A" d="M67,585.7h-2.2l-4.1-9.1h-13l-4.1,9.1h-2.2l12.3-26.8h1.1L67,585.7z M54.3,562.3l-5.6,12.5h11.5
			L54.3,562.3z"/>
		<path fill="#00483A" d="M84.1,584.1h13.2v1.7H82.2v-26.6h2.2v24.9H84.1z"/>
		<path fill="#00483A" d="M128,561h-9.9v24.9h-2.2V561H106v-1.7H128V561z"/>
		<path fill="#00483A" d="M164.8,585.7h-2.2v-12.5h-17.7v12.5h-2.2v-26.6h2.2v12.3h17.7v-12.3h2.2V585.7z"/>
		<path fill="#00483A" d="M227.5,559.3h2.2v26.6h-2.2v-23.6l0,0l-9.9,12.3l-9.9-12.3l0,0v23.6h-2.2v-26.6h2.2l10.2,12.3L227.5,559.3
			z"/>
		<path fill="#00483A" d="M270.1,585.7h-2.2l-4.1-9.1h-13l-4.1,9.1h-2.2l12.3-26.8h1.1L270.1,585.7z M257.3,562.3l-5.6,12.5h11.5
			L257.3,562.3z"/>
		<path fill="#00483A" d="M309,585.7h-1.7l-20.1-23.1v23.1H285v-26.6h1.7l20.1,23.1v-23.1h2.2V585.7z"/>
		<path fill="#00483A" d="M349.7,585.7h-2.2l-4.1-9.1h-13l-4.1,9.1h-2.2l12.3-26.8h1.1L349.7,585.7z M336.9,562.3l-5.6,12.5h11.5
			L336.9,562.3z"/>
		<path fill="#00483A" d="M384.9,563.4c-3.2-1.7-6.3-2.6-9.5-2.6c-6.7,0-11.7,5-11.7,11.7c0,6.1,3.9,11.7,12.3,11.7
			c3,0,5.2-0.6,7.4-1.7v-6.9h-5.6v-1.7h7.6v10.2c-3.2,1.5-6.3,2.2-9.5,2.2c-8.2,0-14.5-5.8-14.5-13.6c0-7.8,6.1-13.6,14.3-13.6
			c3,0,5.4,0.6,9.1,2.2v2.4H384.9z"/>
		<path fill="#00483A" d="M416.9,561h-12.3v10.6h12.1v1.7h-12.1v10.8h12.8v1.7h-14.7v-26.6h14.5v1.7H416.9z"/>
		<path fill="#00483A" d="M455.4,559.3h2.2v26.6h-2.2v-23.6l0,0l-9.9,12.3l-9.9-12.3l0,0v23.6h-2.2v-26.6h2.2l10.2,12.3L455.4,559.3
			z"/>
		<path fill="#00483A" d="M490,561h-12.3v10.6h12.1v1.7h-12.1v10.8h12.8v1.7h-14.7v-26.6h14.5v1.7H490z"/>
		<path fill="#00483A" d="M530.3,585.7h-1.7l-20.1-23.1v23.1h-2.2v-26.6h1.7l20.1,23.1v-23.1h2.2V585.7z"/>
		<path fill="#00483A" d="M567,561h-9.9v24.9h-2.2V561H545v-1.7H567V561z"/>
	</g>
</g>
</svg>
